<?xml version="1.0" encoding="UTF-8"?>
<svg xmlns="http://www.w3.org/2000/svg" xmlns:xlink="http://www.w3.org/1999/xlink" width="48px" height="48px" viewBox="0 0 48 48" version="1.1">
<g id="surface1">
<path style=" stroke:none;fill-rule:nonzero;fill:rgb(11.372549%,74.901961%,45.098039%);fill-opacity:1;" d="M 48 24 C 48 37.253906 37.253906 48 24 48 C 10.746094 48 0 37.253906 0 24 C 0 10.746094 10.746094 0 24 0 C 37.253906 0 48 10.746094 48 24 Z M 48 24 "/>
<path style=" stroke:none;fill-rule:nonzero;fill:rgb(100%,100%,100%);fill-opacity:1;" d="M 32.394531 15.324219 C 32.394531 16.726562 31.257812 17.863281 29.855469 17.863281 C 28.453125 17.863281 27.316406 16.726562 27.316406 15.324219 C 27.316406 13.921875 28.453125 12.785156 29.855469 12.785156 C 31.257812 12.785156 32.394531 13.921875 32.394531 15.324219 Z M 32.394531 15.324219 "/>
<path style=" stroke:none;fill-rule:nonzero;fill:rgb(100%,100%,100%);fill-opacity:1;" d="M 32.507812 19.527344 L 20.886719 19.527344 L 20.886719 18.765625 C 20.886719 17.269531 22.378906 17.242188 23.140625 17.242188 C 24.015625 17.242188 24.410156 17.328125 24.410156 17.328125 L 24.410156 13.207031 C 23.792969 13.132812 23.171875 13.09375 22.550781 13.09375 C 20.125 13.09375 15.636719 13.773438 15.636719 18.90625 L 15.636719 19.558594 L 13.519531 19.558594 L 13.519531 23.367188 L 15.636719 23.367188 L 15.636719 31.410156 L 13.664062 31.410156 L 13.664062 35.21875 L 23.195312 35.21875 L 23.195312 31.40625 L 20.882812 31.40625 L 20.882812 23.363281 L 27.226562 23.363281 L 27.226562 31.40625 L 25.253906 31.40625 L 25.253906 35.214844 L 34.480469 35.214844 L 34.480469 31.40625 L 32.507812 31.40625 Z M 32.507812 19.527344 "/>
</g>
</svg>
